<svg xmlns="http://www.w3.org/2000/svg" width="48" height="48" viewBox="0 0 48 48" shape-rendering="crispEdges">
  <rect width="48" height="48" fill="#2f211b"/>
  <rect x="2" y="4" width="44" height="36" fill="#8f6545"/>
  <rect x="2" y="28" width="44" height="18" fill="#6f4a33"/>
  <path d="M5 30h38v2H5zM5 36h38v2H5zM5 42h38v2H5z" fill="#4c3325"/>
  <path d="M8 12h32v29H8z" fill="#6e4933"/>
  <path d="M10 15h12v26H10zM26 15h12v26H26z" fill="#9c724d"/>
  <path d="M22 12h4v31h-4z" fill="#3a2a22"/>
  <path d="M8 12h32v3H8z" fill="#3a2a22"/>
  <path d="M13 18h6v8h-6zM29 18h6v8h-6z" fill="#d9ded4"/>
  <path d="M14 19h4v2h-4zM30 19h4v2h-4z" fill="#f4f0df"/>
  <path d="M12 25h8v6h-8zM28 25h8v6h-8z" fill="#c6d4d6"/>
  <path d="M14 26h4v3h-4zM30 26h4v3h-4z" fill="#f0f3e7"/>
  <path d="M12 31h8v3h-8zM28 31h8v3h-8z" fill="#8c9a9b"/>
  <path d="M20 19h1v3h-1zM36 19h1v3h-1z" fill="#caa24d"/>
</svg>
